<svg width="30" height="30" viewBox="0 0 30 30" fill="none" xmlns="http://www.w3.org/2000/svg">
<path d="M15.0159 2.8125C15.9333 2.82308 16.8471 2.92908 17.7427 3.1288C18.1336 3.21599 18.426 3.54189 18.4704 3.93995L18.6831 5.84851C18.7794 6.72483 19.5194 7.38855 20.4014 7.38947C20.6385 7.38985 20.873 7.34047 21.0921 7.24354L22.8429 6.47445C23.207 6.31449 23.6325 6.4017 23.9042 6.69203C25.1695 8.0433 26.1117 9.66394 26.6602 11.432C26.7785 11.8132 26.6424 12.2275 26.321 12.4644L24.7692 13.6082C24.3265 13.9335 24.0651 14.45 24.0651 14.9994C24.0651 15.5486 24.3265 16.0651 24.7701 16.3911L26.3234 17.5354C26.6448 17.7721 26.781 18.1865 26.6628 18.5679C26.1145 20.3356 25.1728 21.9561 23.9083 23.3076C23.6366 23.5979 23.2116 23.6854 22.8475 23.5258L21.0895 22.7556C20.5866 22.5355 20.009 22.5678 19.5338 22.8425C19.0585 23.1171 18.7423 23.6015 18.6818 24.1471L18.4705 26.0555C18.4269 26.449 18.1407 26.7728 17.7556 26.8644C15.9451 27.2951 14.0588 27.2951 12.2482 26.8644C11.863 26.7728 11.5769 26.449 11.5333 26.0555L11.3223 24.15C11.2603 23.6054 10.9435 23.1225 10.4686 22.8487C9.99375 22.575 9.41711 22.5429 8.91586 22.7617L7.15758 23.532C6.79339 23.6916 6.36815 23.6041 6.09659 23.3136C4.83139 21.9606 3.8896 20.3381 3.34211 18.5685C3.22419 18.1874 3.36044 17.7732 3.68166 17.5366L5.23584 16.3916C5.67851 16.0664 5.93995 15.5499 5.93995 15.0006C5.93995 14.4513 5.67851 13.9347 5.23525 13.6091L3.68206 12.4661C3.36035 12.2293 3.22398 11.8147 3.34233 11.4332C3.89076 9.66519 4.83304 8.04455 6.09826 6.69327C6.3701 6.40295 6.79554 6.31574 7.15966 6.4757L8.91014 7.24465C9.41381 7.4657 9.99286 7.43231 10.4703 7.15336C10.9457 6.87761 11.2622 6.39278 11.3233 5.84705L11.5359 3.93995C11.5803 3.54169 11.8729 3.21567 12.2641 3.12867C13.1608 2.92927 14.0755 2.82331 15.0159 2.8125ZM15.0002 11.2499C12.9291 11.2499 11.2502 12.9289 11.2502 15C11.2502 17.071 12.9291 18.75 15.0002 18.75C17.0712 18.75 18.7502 17.071 18.7502 15C18.7502 12.9289 17.0712 11.2499 15.0002 11.2499Z" fill="#212121"/>
</svg>
