<svg width="30" height="30" viewBox="0 0 30 30" fill="none" xmlns="http://www.w3.org/2000/svg">
<path d="M12.5 20H17.5C18.1904 20 18.75 20.5596 18.75 21.25C18.75 21.891 18.2675 22.4194 17.6458 22.4916L17.5 22.5H12.5C11.8096 22.5 11.25 21.9404 11.25 21.25C11.25 20.609 11.7326 20.0806 12.3542 20.0084L12.5 20H17.5H12.5ZM10 13.75H20C20.6904 13.75 21.25 14.3096 21.25 15C21.25 15.641 20.7675 16.1694 20.1458 16.2416L20 16.25H10C9.30965 16.25 8.75 15.6904 8.75 15C8.75 14.359 9.23255 13.8306 9.85423 13.7584L10 13.75H20H10ZM6.25 7.5H23.75C24.4404 7.5 25 8.05965 25 8.75C25 9.39105 24.5175 9.91939 23.8958 9.99159L23.75 10H6.25C5.55965 10 5 9.44035 5 8.75C5 8.10895 5.48255 7.58061 6.10422 7.50841L6.25 7.5H23.75H6.25Z" fill="#212121"/>
</svg>
